<mxfile host="app.diagrams.net" modified="2023-11-21T22:46:18.888Z" agent="Mozilla/5.0 (Windows NT 10.0; Win64; x64; rv:109.0) Gecko/20100101 Firefox/119.0" etag="zIKki7B9Fq4TYtfg7jZ3" version="22.1.3" type="device">
  <diagram name="PÃ¡gina-1" id="wf2GuIBFq5m3tof9JPT8">
    <mxGraphModel dx="1129" dy="596" grid="1" gridSize="10" guides="1" tooltips="1" connect="1" arrows="1" fold="1" page="1" pageScale="1" pageWidth="827" pageHeight="1169" math="0" shadow="0">
      <root>
        <mxCell id="0" />
        <mxCell id="1" parent="0" />
        <mxCell id="B8EmS5QNmsXYKfcEEufn-13" value="Cliente" style="swimlane;fontStyle=1;align=center;verticalAlign=top;childLayout=stackLayout;horizontal=1;startSize=26;horizontalStack=0;resizeParent=1;resizeParentMax=0;resizeLast=0;collapsible=1;marginBottom=0;whiteSpace=wrap;html=1;" parent="1" vertex="1">
          <mxGeometry x="-220" y="230" width="270" height="112" as="geometry" />
        </mxCell>
        <mxCell id="gSfClM6evWWHBI8K1yLl-1" value="- nome: String" style="text;strokeColor=none;fillColor=none;align=left;verticalAlign=top;spacingLeft=4;spacingRight=4;overflow=hidden;rotatable=0;points=[[0,0.5],[1,0.5]];portConstraint=eastwest;whiteSpace=wrap;html=1;" parent="B8EmS5QNmsXYKfcEEufn-13" vertex="1">
          <mxGeometry y="26" width="270" height="26" as="geometry" />
        </mxCell>
        <mxCell id="gSfClM6evWWHBI8K1yLl-3" value="- email: String" style="text;strokeColor=none;fillColor=none;align=left;verticalAlign=top;spacingLeft=4;spacingRight=4;overflow=hidden;rotatable=0;points=[[0,0.5],[1,0.5]];portConstraint=eastwest;whiteSpace=wrap;html=1;" parent="B8EmS5QNmsXYKfcEEufn-13" vertex="1">
          <mxGeometry y="52" width="270" height="26" as="geometry" />
        </mxCell>
        <mxCell id="cVpJYCigFDNXf5xTNFg--13" value="- deletado: bool" style="text;strokeColor=none;fillColor=none;align=left;verticalAlign=top;spacingLeft=4;spacingRight=4;overflow=hidden;rotatable=0;points=[[0,0.5],[1,0.5]];portConstraint=eastwest;whiteSpace=wrap;html=1;" vertex="1" parent="B8EmS5QNmsXYKfcEEufn-13">
          <mxGeometry y="78" width="270" height="26" as="geometry" />
        </mxCell>
        <mxCell id="gSfClM6evWWHBI8K1yLl-14" value="" style="line;strokeWidth=1;fillColor=none;align=left;verticalAlign=middle;spacingTop=-1;spacingLeft=3;spacingRight=3;rotatable=0;labelPosition=right;points=[];portConstraint=eastwest;strokeColor=inherit;" parent="B8EmS5QNmsXYKfcEEufn-13" vertex="1">
          <mxGeometry y="104" width="270" height="8" as="geometry" />
        </mxCell>
        <mxCell id="B8EmS5QNmsXYKfcEEufn-17" value="Servico" style="swimlane;fontStyle=1;align=center;verticalAlign=top;childLayout=stackLayout;horizontal=1;startSize=26;horizontalStack=0;resizeParent=1;resizeParentMax=0;resizeLast=0;collapsible=1;marginBottom=0;whiteSpace=wrap;html=1;" parent="1" vertex="1">
          <mxGeometry x="85" y="60" width="190" height="130" as="geometry" />
        </mxCell>
        <mxCell id="B8EmS5QNmsXYKfcEEufn-50" value="- nome: String" style="text;strokeColor=none;fillColor=none;align=left;verticalAlign=top;spacingLeft=4;spacingRight=4;overflow=hidden;rotatable=0;points=[[0,0.5],[1,0.5]];portConstraint=eastwest;whiteSpace=wrap;html=1;" parent="B8EmS5QNmsXYKfcEEufn-17" vertex="1">
          <mxGeometry y="26" width="190" height="26" as="geometry" />
        </mxCell>
        <mxCell id="B8EmS5QNmsXYKfcEEufn-18" value="- modalidadePagamento: String" style="text;strokeColor=none;fillColor=none;align=left;verticalAlign=top;spacingLeft=4;spacingRight=4;overflow=hidden;rotatable=0;points=[[0,0.5],[1,0.5]];portConstraint=eastwest;whiteSpace=wrap;html=1;" parent="B8EmS5QNmsXYKfcEEufn-17" vertex="1">
          <mxGeometry y="52" width="190" height="26" as="geometry" />
        </mxCell>
        <mxCell id="gSfClM6evWWHBI8K1yLl-5" value="- valor: double" style="text;strokeColor=none;fillColor=none;align=left;verticalAlign=top;spacingLeft=4;spacingRight=4;overflow=hidden;rotatable=0;points=[[0,0.5],[1,0.5]];portConstraint=eastwest;whiteSpace=wrap;html=1;" parent="B8EmS5QNmsXYKfcEEufn-17" vertex="1">
          <mxGeometry y="78" width="190" height="26" as="geometry" />
        </mxCell>
        <mxCell id="gSfClM6evWWHBI8K1yLl-4" value="- deletado: bool" style="text;strokeColor=none;fillColor=none;align=left;verticalAlign=top;spacingLeft=4;spacingRight=4;overflow=hidden;rotatable=0;points=[[0,0.5],[1,0.5]];portConstraint=eastwest;whiteSpace=wrap;html=1;" parent="B8EmS5QNmsXYKfcEEufn-17" vertex="1">
          <mxGeometry y="104" width="190" height="26" as="geometry" />
        </mxCell>
        <mxCell id="B8EmS5QNmsXYKfcEEufn-21" value="Fornecedor" style="swimlane;fontStyle=1;align=center;verticalAlign=top;childLayout=stackLayout;horizontal=1;startSize=26;horizontalStack=0;resizeParent=1;resizeParentMax=0;resizeLast=0;collapsible=1;marginBottom=0;whiteSpace=wrap;html=1;" parent="1" vertex="1">
          <mxGeometry x="390" y="30" width="160" height="104" as="geometry" />
        </mxCell>
        <mxCell id="B8EmS5QNmsXYKfcEEufn-22" value="- nome: String" style="text;strokeColor=none;fillColor=none;align=left;verticalAlign=top;spacingLeft=4;spacingRight=4;overflow=hidden;rotatable=0;points=[[0,0.5],[1,0.5]];portConstraint=eastwest;whiteSpace=wrap;html=1;" parent="B8EmS5QNmsXYKfcEEufn-21" vertex="1">
          <mxGeometry y="26" width="160" height="26" as="geometry" />
        </mxCell>
        <mxCell id="B8EmS5QNmsXYKfcEEufn-49" value="- servicos: List&amp;lt;Servico&amp;gt;" style="text;strokeColor=none;fillColor=none;align=left;verticalAlign=top;spacingLeft=4;spacingRight=4;overflow=hidden;rotatable=0;points=[[0,0.5],[1,0.5]];portConstraint=eastwest;whiteSpace=wrap;html=1;" parent="B8EmS5QNmsXYKfcEEufn-21" vertex="1">
          <mxGeometry y="52" width="160" height="26" as="geometry" />
        </mxCell>
        <mxCell id="cVpJYCigFDNXf5xTNFg--17" value="- deletado: bool" style="text;strokeColor=none;fillColor=none;align=left;verticalAlign=top;spacingLeft=4;spacingRight=4;overflow=hidden;rotatable=0;points=[[0,0.5],[1,0.5]];portConstraint=eastwest;whiteSpace=wrap;html=1;" vertex="1" parent="B8EmS5QNmsXYKfcEEufn-21">
          <mxGeometry y="78" width="160" height="26" as="geometry" />
        </mxCell>
        <mxCell id="B8EmS5QNmsXYKfcEEufn-29" value="Transacao" style="swimlane;fontStyle=1;align=center;verticalAlign=top;childLayout=stackLayout;horizontal=1;startSize=26;horizontalStack=0;resizeParent=1;resizeParentMax=0;resizeLast=0;collapsible=1;marginBottom=0;whiteSpace=wrap;html=1;" parent="1" vertex="1">
          <mxGeometry x="-30" y="420" width="240" height="138" as="geometry">
            <mxRectangle x="230" y="420" width="100" height="30" as="alternateBounds" />
          </mxGeometry>
        </mxCell>
        <mxCell id="gSfClM6evWWHBI8K1yLl-8" value="- comprador: Cliente" style="text;strokeColor=none;fillColor=none;align=left;verticalAlign=top;spacingLeft=4;spacingRight=4;overflow=hidden;rotatable=0;points=[[0,0.5],[1,0.5]];portConstraint=eastwest;whiteSpace=wrap;html=1;" parent="B8EmS5QNmsXYKfcEEufn-29" vertex="1">
          <mxGeometry y="26" width="240" height="26" as="geometry" />
        </mxCell>
        <mxCell id="gSfClM6evWWHBI8K1yLl-9" value="- servicos: List&amp;lt;Servico&amp;gt;" style="text;strokeColor=none;fillColor=none;align=left;verticalAlign=top;spacingLeft=4;spacingRight=4;overflow=hidden;rotatable=0;points=[[0,0.5],[1,0.5]];portConstraint=eastwest;whiteSpace=wrap;html=1;" parent="B8EmS5QNmsXYKfcEEufn-29" vertex="1">
          <mxGeometry y="52" width="240" height="26" as="geometry" />
        </mxCell>
        <mxCell id="gSfClM6evWWHBI8K1yLl-10" value="- fornecedor: Fornecedor" style="text;strokeColor=none;fillColor=none;align=left;verticalAlign=top;spacingLeft=4;spacingRight=4;overflow=hidden;rotatable=0;points=[[0,0.5],[1,0.5]];portConstraint=eastwest;whiteSpace=wrap;html=1;" parent="B8EmS5QNmsXYKfcEEufn-29" vertex="1">
          <mxGeometry y="78" width="240" height="26" as="geometry" />
        </mxCell>
        <mxCell id="gSfClM6evWWHBI8K1yLl-38" value="" style="line;strokeWidth=1;fillColor=none;align=left;verticalAlign=middle;spacingTop=-1;spacingLeft=3;spacingRight=3;rotatable=0;labelPosition=right;points=[];portConstraint=eastwest;strokeColor=inherit;" parent="B8EmS5QNmsXYKfcEEufn-29" vertex="1">
          <mxGeometry y="104" width="240" height="8" as="geometry" />
        </mxCell>
        <mxCell id="gSfClM6evWWHBI8K1yLl-39" value="+ GerarValorCobrado(): Double" style="text;strokeColor=none;fillColor=none;align=left;verticalAlign=top;spacingLeft=4;spacingRight=4;overflow=hidden;rotatable=0;points=[[0,0.5],[1,0.5]];portConstraint=eastwest;whiteSpace=wrap;html=1;" parent="B8EmS5QNmsXYKfcEEufn-29" vertex="1">
          <mxGeometry y="112" width="240" height="26" as="geometry" />
        </mxCell>
        <mxCell id="B8EmS5QNmsXYKfcEEufn-41" value="InformacoesPagamento" style="swimlane;fontStyle=1;align=center;verticalAlign=top;childLayout=stackLayout;horizontal=1;startSize=26;horizontalStack=0;resizeParent=1;resizeParentMax=0;resizeLast=0;collapsible=1;marginBottom=0;whiteSpace=wrap;html=1;" parent="1" vertex="1">
          <mxGeometry x="387.5" y="190" width="165" height="130" as="geometry" />
        </mxCell>
        <mxCell id="B8EmS5QNmsXYKfcEEufn-42" value="- dataVencimento: DateTime" style="text;strokeColor=none;fillColor=none;align=left;verticalAlign=top;spacingLeft=4;spacingRight=4;overflow=hidden;rotatable=0;points=[[0,0.5],[1,0.5]];portConstraint=eastwest;whiteSpace=wrap;html=1;" parent="B8EmS5QNmsXYKfcEEufn-41" vertex="1">
          <mxGeometry y="26" width="165" height="26" as="geometry" />
        </mxCell>
        <mxCell id="gSfClM6evWWHBI8K1yLl-37" value="- transacao: Transacao" style="text;strokeColor=none;fillColor=none;align=left;verticalAlign=top;spacingLeft=4;spacingRight=4;overflow=hidden;rotatable=0;points=[[0,0.5],[1,0.5]];portConstraint=eastwest;whiteSpace=wrap;html=1;" parent="B8EmS5QNmsXYKfcEEufn-41" vertex="1">
          <mxGeometry y="52" width="165" height="26" as="geometry" />
        </mxCell>
        <mxCell id="gSfClM6evWWHBI8K1yLl-40" value="- valorCobrado: double" style="text;strokeColor=none;fillColor=none;align=left;verticalAlign=top;spacingLeft=4;spacingRight=4;overflow=hidden;rotatable=0;points=[[0,0.5],[1,0.5]];portConstraint=eastwest;whiteSpace=wrap;html=1;" parent="B8EmS5QNmsXYKfcEEufn-41" vertex="1">
          <mxGeometry y="78" width="165" height="26" as="geometry" />
        </mxCell>
        <mxCell id="gSfClM6evWWHBI8K1yLl-35" value="- fornecedor: Fornecedor" style="text;strokeColor=none;fillColor=none;align=left;verticalAlign=top;spacingLeft=4;spacingRight=4;overflow=hidden;rotatable=0;points=[[0,0.5],[1,0.5]];portConstraint=eastwest;whiteSpace=wrap;html=1;" parent="B8EmS5QNmsXYKfcEEufn-41" vertex="1">
          <mxGeometry y="104" width="165" height="26" as="geometry" />
        </mxCell>
        <mxCell id="cVpJYCigFDNXf5xTNFg--1" value="" style="endArrow=none;html=1;rounded=0;" edge="1" parent="1" source="B8EmS5QNmsXYKfcEEufn-17" target="B8EmS5QNmsXYKfcEEufn-21">
          <mxGeometry width="50" height="50" relative="1" as="geometry">
            <mxPoint x="310" y="90" as="sourcePoint" />
            <mxPoint x="360" y="40" as="targetPoint" />
          </mxGeometry>
        </mxCell>
        <mxCell id="cVpJYCigFDNXf5xTNFg--2" value="n" style="edgeLabel;html=1;align=center;verticalAlign=middle;resizable=0;points=[];" vertex="1" connectable="0" parent="cVpJYCigFDNXf5xTNFg--1">
          <mxGeometry x="-0.7734" relative="1" as="geometry">
            <mxPoint as="offset" />
          </mxGeometry>
        </mxCell>
        <mxCell id="cVpJYCigFDNXf5xTNFg--3" value="1" style="edgeLabel;html=1;align=center;verticalAlign=middle;resizable=0;points=[];" vertex="1" connectable="0" parent="cVpJYCigFDNXf5xTNFg--1">
          <mxGeometry x="0.7873" y="-1" relative="1" as="geometry">
            <mxPoint as="offset" />
          </mxGeometry>
        </mxCell>
        <mxCell id="cVpJYCigFDNXf5xTNFg--4" value="" style="endArrow=none;html=1;rounded=0;" edge="1" parent="1" source="B8EmS5QNmsXYKfcEEufn-41" target="B8EmS5QNmsXYKfcEEufn-21">
          <mxGeometry width="50" height="50" relative="1" as="geometry">
            <mxPoint x="380" y="180" as="sourcePoint" />
            <mxPoint x="430" y="130" as="targetPoint" />
          </mxGeometry>
        </mxCell>
        <mxCell id="cVpJYCigFDNXf5xTNFg--5" value="n" style="edgeLabel;html=1;align=center;verticalAlign=middle;resizable=0;points=[];" vertex="1" connectable="0" parent="cVpJYCigFDNXf5xTNFg--4">
          <mxGeometry x="-0.6137" y="1" relative="1" as="geometry">
            <mxPoint as="offset" />
          </mxGeometry>
        </mxCell>
        <mxCell id="cVpJYCigFDNXf5xTNFg--6" value="1" style="edgeLabel;html=1;align=center;verticalAlign=middle;resizable=0;points=[];" vertex="1" connectable="0" parent="cVpJYCigFDNXf5xTNFg--4">
          <mxGeometry x="0.7087" relative="1" as="geometry">
            <mxPoint as="offset" />
          </mxGeometry>
        </mxCell>
        <mxCell id="cVpJYCigFDNXf5xTNFg--7" value="" style="endArrow=none;html=1;rounded=0;" edge="1" parent="1" source="B8EmS5QNmsXYKfcEEufn-13" target="B8EmS5QNmsXYKfcEEufn-29">
          <mxGeometry width="50" height="50" relative="1" as="geometry">
            <mxPoint x="-70" y="440" as="sourcePoint" />
            <mxPoint x="-20" y="390" as="targetPoint" />
          </mxGeometry>
        </mxCell>
        <mxCell id="cVpJYCigFDNXf5xTNFg--8" value="1" style="edgeLabel;html=1;align=center;verticalAlign=middle;resizable=0;points=[];" vertex="1" connectable="0" parent="cVpJYCigFDNXf5xTNFg--7">
          <mxGeometry x="-0.7935" y="-1" relative="1" as="geometry">
            <mxPoint as="offset" />
          </mxGeometry>
        </mxCell>
        <mxCell id="cVpJYCigFDNXf5xTNFg--9" value="n" style="edgeLabel;html=1;align=center;verticalAlign=middle;resizable=0;points=[];" vertex="1" connectable="0" parent="cVpJYCigFDNXf5xTNFg--7">
          <mxGeometry x="0.7732" y="1" relative="1" as="geometry">
            <mxPoint as="offset" />
          </mxGeometry>
        </mxCell>
        <mxCell id="cVpJYCigFDNXf5xTNFg--10" value="" style="endArrow=none;html=1;rounded=0;" edge="1" parent="1" source="B8EmS5QNmsXYKfcEEufn-29" target="B8EmS5QNmsXYKfcEEufn-17">
          <mxGeometry width="50" height="50" relative="1" as="geometry">
            <mxPoint x="110" y="320" as="sourcePoint" />
            <mxPoint x="160" y="270" as="targetPoint" />
          </mxGeometry>
        </mxCell>
        <mxCell id="cVpJYCigFDNXf5xTNFg--11" value="1" style="edgeLabel;html=1;align=center;verticalAlign=middle;resizable=0;points=[];" vertex="1" connectable="0" parent="cVpJYCigFDNXf5xTNFg--10">
          <mxGeometry x="0.8942" y="2" relative="1" as="geometry">
            <mxPoint as="offset" />
          </mxGeometry>
        </mxCell>
        <mxCell id="cVpJYCigFDNXf5xTNFg--12" value="n" style="edgeLabel;html=1;align=center;verticalAlign=middle;resizable=0;points=[];" vertex="1" connectable="0" parent="cVpJYCigFDNXf5xTNFg--10">
          <mxGeometry x="-0.9016" relative="1" as="geometry">
            <mxPoint as="offset" />
          </mxGeometry>
        </mxCell>
        <mxCell id="cVpJYCigFDNXf5xTNFg--14" value="" style="endArrow=none;html=1;rounded=0;" edge="1" parent="1" source="B8EmS5QNmsXYKfcEEufn-29" target="B8EmS5QNmsXYKfcEEufn-21">
          <mxGeometry width="50" height="50" relative="1" as="geometry">
            <mxPoint x="260" y="290" as="sourcePoint" />
            <mxPoint x="310" y="240" as="targetPoint" />
          </mxGeometry>
        </mxCell>
        <mxCell id="cVpJYCigFDNXf5xTNFg--15" value="n" style="edgeLabel;html=1;align=center;verticalAlign=middle;resizable=0;points=[];" vertex="1" connectable="0" parent="cVpJYCigFDNXf5xTNFg--14">
          <mxGeometry x="-0.8936" y="1" relative="1" as="geometry">
            <mxPoint x="1" as="offset" />
          </mxGeometry>
        </mxCell>
        <mxCell id="cVpJYCigFDNXf5xTNFg--16" value="1" style="edgeLabel;html=1;align=center;verticalAlign=middle;resizable=0;points=[];" vertex="1" connectable="0" parent="cVpJYCigFDNXf5xTNFg--14">
          <mxGeometry x="0.92" y="-1" relative="1" as="geometry">
            <mxPoint as="offset" />
          </mxGeometry>
        </mxCell>
        <mxCell id="cVpJYCigFDNXf5xTNFg--18" value="" style="endArrow=none;html=1;rounded=0;" edge="1" parent="1" source="B8EmS5QNmsXYKfcEEufn-29" target="B8EmS5QNmsXYKfcEEufn-41">
          <mxGeometry width="50" height="50" relative="1" as="geometry">
            <mxPoint x="300" y="410" as="sourcePoint" />
            <mxPoint x="350" y="360" as="targetPoint" />
          </mxGeometry>
        </mxCell>
        <mxCell id="cVpJYCigFDNXf5xTNFg--19" value="n" style="edgeLabel;html=1;align=center;verticalAlign=middle;resizable=0;points=[];" vertex="1" connectable="0" parent="cVpJYCigFDNXf5xTNFg--18">
          <mxGeometry x="0.858" y="-1" relative="1" as="geometry">
            <mxPoint as="offset" />
          </mxGeometry>
        </mxCell>
        <mxCell id="cVpJYCigFDNXf5xTNFg--20" value="1" style="edgeLabel;html=1;align=center;verticalAlign=middle;resizable=0;points=[];" vertex="1" connectable="0" parent="cVpJYCigFDNXf5xTNFg--18">
          <mxGeometry x="-0.8699" y="-2" relative="1" as="geometry">
            <mxPoint as="offset" />
          </mxGeometry>
        </mxCell>
      </root>
    </mxGraphModel>
  </diagram>
</mxfile>
